<svg width="512" height="512" viewBox="0 0 512 512" fill="none" xmlns="http://www.w3.org/2000/svg">
<rect x="12.8" y="12.8" width="486.4" height="486.4" rx="243.2" fill="black"/>
<rect x="12.8" y="12.8" width="486.4" height="486.4" rx="243.2" stroke="url(#paint0_linear_714_2)" stroke-width="25.6"/>
<rect x="12.8" y="12.8" width="486.4" height="486.4" rx="243.2" stroke="white" stroke-opacity="0.2" stroke-width="25.6"/>
<path fill-rule="evenodd" clip-rule="evenodd" d="M123.733 148.111L155.788 185.072C163.955 194.49 175.807 199.9 188.273 199.9H209.842L146.025 363.961L145.991 363.996H190.151C199.388 361.927 201.736 358.863 204.702 351.254L263.442 199.9H302.315L238.495 363.965L238.462 364H282.622C291.858 361.932 294.206 358.867 297.173 351.259L355.914 199.9H411.733L379.571 162.824C371.399 153.403 359.54 147.994 347.068 148L123.733 148.111Z" fill="white"/>
<defs>
<linearGradient id="paint0_linear_714_2" x1="-9.53674e-07" y1="255.999" x2="512" y2="255.999" gradientUnits="userSpaceOnUse">
<stop stop-color="#FFFF00"/>
<stop offset="1" stop-color="#3DFF53"/>
</linearGradient>
</defs>
</svg>
