<svg width="710" height="191" viewBox="0 0 710 191" fill="none" xmlns="http://www.w3.org/2000/svg">
<g clip-path="url(#clip0_2569_80)">
<path d="M178.941 175.378H155.28C154.012 175.378 152.841 174.694 152.158 173.571L76.1517 41.9388C75.42 40.7182 75.42 39.2534 76.1517 37.984L88.0064 17.4774C89.5187 14.8409 93.3239 14.8409 94.8362 17.4774L176.307 158.582L182.453 169.226C184.014 171.911 182.063 175.329 178.941 175.329V175.378Z" fill="white"/>
<path d="M114.838 175.378C114.448 175.524 114.009 175.573 113.57 175.573H89.8602C89.4212 175.573 88.9821 175.524 88.5918 175.378C87.7137 175.085 86.9331 174.499 86.4453 173.62L61.9554 131.142C60.4431 128.506 56.6867 128.506 55.1744 131.142L30.9772 173.083C30.1479 174.499 28.6355 175.378 26.9769 175.378H4.0481C0.877102 175.378 -1.12307 171.96 0.486825 169.177L6.73125 158.338L46.1492 90.178C48.5397 85.7349 53.1742 82.6589 58.5405 82.6589C63.9068 82.6589 68.1511 85.3931 70.6391 89.5433H70.7366L116.984 169.714C118.253 171.96 117.082 174.597 114.838 175.378Z" fill="white"/>
</g>
<path d="M256.338 85.568C249.478 85.568 243.565 84.1307 238.6 81.256C233.635 78.316 229.813 74.1347 227.134 68.712C224.521 63.2893 223.214 56.8213 223.214 49.308C223.214 41.7947 224.521 35.3267 227.134 29.904C229.813 24.416 233.635 20.202 238.6 17.262C243.565 14.322 249.478 12.852 256.338 12.852C263.329 12.852 269.274 14.322 274.174 17.262C279.139 20.202 282.929 24.416 285.542 29.904C288.221 35.3267 289.56 41.7947 289.56 49.308C289.56 56.8213 288.221 63.2893 285.542 68.712C282.929 74.1347 279.139 78.316 274.174 81.256C269.274 84.1307 263.329 85.568 256.338 85.568ZM256.338 74.494C260.585 74.494 264.178 73.514 267.118 71.554C270.123 69.5287 272.41 66.654 273.978 62.93C275.611 59.1407 276.428 54.6 276.428 49.308C276.428 44.016 275.611 39.4753 273.978 35.686C272.41 31.8967 270.123 28.9893 267.118 26.964C264.178 24.9387 260.585 23.926 256.338 23.926C252.222 23.926 248.661 24.9387 245.656 26.964C242.651 28.9893 240.331 31.8967 238.698 35.686C237.13 39.4753 236.346 44.016 236.346 49.308C236.346 54.6 237.13 59.1407 238.698 62.93C240.331 66.654 242.651 69.5287 245.656 71.554C248.661 73.514 252.222 74.494 256.338 74.494ZM300.604 98.7V31.668H312.658L312.952 42.84L311.678 42.252C312.985 38.3973 315.108 35.49 318.048 33.53C321.053 31.5047 324.549 30.492 328.534 30.492C333.499 30.492 337.615 31.7333 340.882 34.216C344.214 36.6987 346.697 39.998 348.33 44.114C349.963 48.23 350.78 52.8033 350.78 57.834C350.78 62.8647 349.931 67.438 348.232 71.554C346.599 75.67 344.116 78.9693 340.784 81.452C337.517 83.9347 333.401 85.176 328.436 85.176C325.823 85.176 323.373 84.7187 321.086 83.804C318.865 82.8893 316.937 81.5827 315.304 79.884C313.736 78.1853 312.625 76.1927 311.972 73.906L313.148 72.926V98.7H300.604ZM325.496 74.984C329.285 74.984 332.258 73.4813 334.414 70.476C336.635 67.4053 337.746 63.1913 337.746 57.834C337.746 52.4767 336.635 48.2953 334.414 45.29C332.258 42.2193 329.285 40.684 325.496 40.684C322.948 40.684 320.759 41.3373 318.93 42.644C317.101 43.8853 315.663 45.78 314.618 48.328C313.638 50.876 313.148 54.0447 313.148 57.834C313.148 61.6233 313.638 64.792 314.618 67.34C315.598 69.888 317.003 71.8153 318.832 73.122C320.727 74.3633 322.948 74.984 325.496 74.984ZM379.668 84C374.441 84 370.587 82.7913 368.104 80.374C365.687 77.9567 364.478 74.1673 364.478 69.006V19.418H377.022V67.83C377.022 70.2473 377.545 71.946 378.59 72.926C379.635 73.8407 381.269 74.298 383.49 74.298H390.84V84H379.668ZM356.246 41.37V31.668H390.84V41.37H356.246ZM400.04 84V31.668H412.584V84H400.04ZM399.844 24.71V13.538H412.878V24.71H399.844ZM427.124 84V31.668H438.492L438.884 44.506L437.708 43.918C438.296 41.1087 439.308 38.724 440.746 36.764C442.248 34.7387 444.045 33.2033 446.136 32.158C448.292 31.0473 450.644 30.492 453.192 30.492C457.634 30.492 461.228 31.766 463.972 34.314C466.716 36.7967 468.447 40.2267 469.166 44.604H467.5C468.088 41.5333 469.1 38.9853 470.538 36.96C471.975 34.8693 473.772 33.2687 475.928 32.158C478.149 31.0473 480.632 30.492 483.376 30.492C486.969 30.492 490.072 31.276 492.686 32.844C495.299 34.3467 497.292 36.568 498.664 39.508C500.101 42.448 500.82 46.074 500.82 50.386V84H488.276V53.62C488.276 49.308 487.524 46.074 486.022 43.918C484.584 41.762 482.363 40.684 479.358 40.684C477.332 40.684 475.601 41.2067 474.164 42.252C472.726 43.2973 471.616 44.8327 470.832 46.858C470.113 48.818 469.754 51.2027 469.754 54.012V84H458.092V54.012C458.092 49.7 457.438 46.4007 456.132 44.114C454.825 41.8273 452.571 40.684 449.37 40.684C447.344 40.684 445.613 41.2067 444.176 42.252C442.804 43.2973 441.693 44.8327 440.844 46.858C440.06 48.818 439.668 51.2027 439.668 54.012V84H427.124ZM509.503 84L534.591 14.42H550.173L575.261 84H561.933L556.151 67.536H528.613L522.831 84H509.503ZM532.337 56.658H552.427L542.431 27.258L532.337 56.658ZM582.569 84V14.42H595.309V84H582.569Z" fill="white"/>
<path d="M225.688 177V127.3H241.088C248.741 127.3 254.621 129.47 258.728 133.81C262.881 138.103 264.958 144.24 264.958 152.22C264.958 160.153 262.928 166.267 258.868 170.56C254.808 174.853 249.021 177 241.508 177H225.688ZM231.708 171.12H241.088C246.921 171.12 251.308 169.557 254.248 166.43C257.188 163.257 258.658 158.52 258.658 152.22C258.658 145.827 257.188 141.067 254.248 137.94C251.308 134.767 246.921 133.18 241.088 133.18H231.708V171.12ZM289.172 177.84C285.765 177.84 282.779 177.047 280.212 175.46C277.645 173.873 275.662 171.633 274.262 168.74C272.862 165.8 272.162 162.37 272.162 158.45C272.162 154.483 272.862 151.053 274.262 148.16C275.662 145.267 277.645 143.027 280.212 141.44C282.779 139.853 285.765 139.06 289.172 139.06C292.579 139.06 295.542 139.853 298.062 141.44C300.629 143.027 302.612 145.267 304.012 148.16C305.412 151.053 306.112 154.483 306.112 158.45C306.112 162.37 305.412 165.8 304.012 168.74C302.612 171.633 300.629 173.873 298.062 175.46C295.542 177.047 292.579 177.84 289.172 177.84ZM289.172 172.24C292.579 172.24 295.215 171.027 297.082 168.6C298.995 166.127 299.952 162.743 299.952 158.45C299.952 154.157 298.995 150.797 297.082 148.37C295.215 145.897 292.579 144.66 289.172 144.66C285.765 144.66 283.105 145.897 281.192 148.37C279.279 150.797 278.322 154.157 278.322 158.45C278.322 162.743 279.279 166.127 281.192 168.6C283.105 171.027 285.765 172.24 289.172 172.24ZM328.615 177.84C325.162 177.84 322.152 177.047 319.585 175.46C317.065 173.873 315.105 171.633 313.705 168.74C312.305 165.8 311.605 162.37 311.605 158.45C311.605 154.53 312.305 151.123 313.705 148.23C315.105 145.337 317.065 143.097 319.585 141.51C322.152 139.877 325.162 139.06 328.615 139.06C331.462 139.06 333.982 139.573 336.175 140.6C338.415 141.58 340.235 143.027 341.635 144.94C343.035 146.853 343.945 149.187 344.365 151.94L338.205 152.36C337.785 149.887 336.712 147.997 334.985 146.69C333.259 145.337 331.135 144.66 328.615 144.66C325.209 144.66 322.549 145.897 320.635 148.37C318.722 150.797 317.765 154.157 317.765 158.45C317.765 162.743 318.722 166.127 320.635 168.6C322.549 171.027 325.209 172.24 328.615 172.24C331.135 172.24 333.259 171.54 334.985 170.14C336.712 168.74 337.785 166.64 338.205 163.84L344.365 164.26C343.945 167.013 343.035 169.417 341.635 171.47C340.235 173.477 338.415 175.04 336.175 176.16C333.982 177.28 331.462 177.84 328.615 177.84ZM363.835 177.84C360.148 177.84 357.185 176.603 354.945 174.13C352.751 171.61 351.655 168.157 351.655 163.77V139.9H357.535V162.16C357.535 165.753 358.165 168.413 359.425 170.14C360.731 171.82 362.715 172.66 365.375 172.66C368.315 172.66 370.625 171.727 372.305 169.86C373.985 167.947 374.825 165.333 374.825 162.02V139.9H380.705V177H375.105V167.83L376.015 168.32C375.268 171.353 373.845 173.71 371.745 175.39C369.645 177.023 367.008 177.84 363.835 177.84ZM391.918 177V139.9H397.308L397.518 149.28L396.678 149C397.098 146.947 397.822 145.197 398.848 143.75C399.922 142.257 401.228 141.113 402.768 140.32C404.308 139.48 406.012 139.06 407.878 139.06C411.098 139.06 413.712 139.947 415.718 141.72C417.772 143.493 419.055 145.967 419.568 149.14L418.448 149.07C418.822 146.923 419.498 145.127 420.478 143.68C421.505 142.187 422.812 141.043 424.398 140.25C425.985 139.457 427.805 139.06 429.858 139.06C432.518 139.06 434.758 139.62 436.578 140.74C438.398 141.813 439.775 143.4 440.708 145.5C441.642 147.6 442.108 150.143 442.108 153.13V177H436.228V154.39C436.228 151.03 435.575 148.51 434.268 146.83C432.962 145.103 431.025 144.24 428.458 144.24C426.732 144.24 425.215 144.66 423.908 145.5C422.648 146.34 421.668 147.553 420.968 149.14C420.268 150.68 419.918 152.57 419.918 154.81V177H414.038V154.81C414.038 151.497 413.455 148.907 412.288 147.04C411.122 145.173 409.162 144.24 406.408 144.24C404.682 144.24 403.165 144.66 401.858 145.5C400.598 146.34 399.595 147.553 398.848 149.14C398.148 150.727 397.798 152.617 397.798 154.81V177H391.918ZM466.975 177.84C463.475 177.84 460.441 177.047 457.875 175.46C455.355 173.873 453.395 171.633 451.995 168.74C450.641 165.8 449.965 162.37 449.965 158.45C449.965 154.53 450.641 151.123 451.995 148.23C453.395 145.337 455.331 143.097 457.805 141.51C460.325 139.877 463.288 139.06 466.695 139.06C469.915 139.06 472.761 139.83 475.235 141.37C477.708 142.863 479.621 145.057 480.975 147.95C482.375 150.843 483.075 154.367 483.075 158.52V160.27H456.125C456.358 164.237 457.408 167.223 459.275 169.23C461.188 171.237 463.755 172.24 466.975 172.24C469.401 172.24 471.385 171.68 472.925 170.56C474.511 169.393 475.608 167.877 476.215 166.01L482.515 166.5C481.535 169.813 479.668 172.543 476.915 174.69C474.208 176.79 470.895 177.84 466.975 177.84ZM456.125 155.09H476.635C476.355 151.497 475.305 148.86 473.485 147.18C471.711 145.5 469.448 144.66 466.695 144.66C463.848 144.66 461.491 145.547 459.625 147.32C457.805 149.047 456.638 151.637 456.125 155.09ZM491.039 177V139.9H496.429L496.639 149.35L495.939 148.72C496.406 146.527 497.223 144.73 498.389 143.33C499.556 141.883 500.956 140.81 502.589 140.11C504.269 139.41 506.066 139.06 507.979 139.06C510.826 139.06 513.159 139.69 514.979 140.95C516.846 142.21 518.223 143.913 519.109 146.06C520.043 148.16 520.509 150.517 520.509 153.13V177H514.629V154.81C514.629 152.523 514.349 150.61 513.789 149.07C513.276 147.483 512.436 146.293 511.269 145.5C510.103 144.66 508.586 144.24 506.719 144.24C503.873 144.24 501.516 145.15 499.649 146.97C497.829 148.743 496.919 151.357 496.919 154.81V177H491.039ZM542.491 177C539.131 177 536.634 176.23 535.001 174.69C533.414 173.15 532.621 170.747 532.621 167.48V131.22H538.501V167.34C538.501 169.02 538.874 170.187 539.621 170.84C540.367 171.493 541.511 171.82 543.051 171.82H548.371V177H542.491ZM527.161 145.08V139.9H548.371V145.08H527.161ZM565.649 177.84C561.822 177.84 558.766 176.953 556.479 175.18C554.239 173.407 553.119 170.933 553.119 167.76C553.119 164.587 554.052 162.09 555.919 160.27C557.786 158.45 560.749 157.167 564.809 156.42L577.969 153.97C577.969 150.843 577.222 148.51 575.729 146.97C574.282 145.43 572.089 144.66 569.149 144.66C566.582 144.66 564.552 145.243 563.059 146.41C561.566 147.53 560.539 149.163 559.979 151.31L553.749 150.82C554.449 147.32 556.129 144.497 558.789 142.35C561.496 140.157 564.949 139.06 569.149 139.06C573.909 139.06 577.549 140.413 580.069 143.12C582.589 145.78 583.849 149.467 583.849 154.18V169.51C583.849 170.35 583.989 170.957 584.269 171.33C584.596 171.657 585.109 171.82 585.809 171.82H587.279V177C587.092 177.047 586.789 177.07 586.369 177.07C585.949 177.117 585.506 177.14 585.039 177.14C583.359 177.14 581.982 176.883 580.909 176.37C579.882 175.81 579.136 174.97 578.669 173.85C578.202 172.683 577.969 171.167 577.969 169.3L578.669 169.44C578.342 171.027 577.549 172.473 576.289 173.78C575.029 175.04 573.466 176.043 571.599 176.79C569.732 177.49 567.749 177.84 565.649 177.84ZM566.209 172.66C568.682 172.66 570.782 172.193 572.509 171.26C574.282 170.28 575.636 168.973 576.569 167.34C577.502 165.66 577.969 163.793 577.969 161.74V159.08L565.929 161.32C563.409 161.787 561.659 162.51 560.679 163.49C559.746 164.423 559.279 165.66 559.279 167.2C559.279 168.927 559.886 170.28 561.099 171.26C562.359 172.193 564.062 172.66 566.209 172.66ZM605.655 177C602.295 177 599.798 176.23 598.165 174.69C596.578 173.15 595.785 170.747 595.785 167.48V131.22H601.665V167.34C601.665 169.02 602.038 170.187 602.785 170.84C603.531 171.493 604.675 171.82 606.215 171.82H611.535V177H605.655ZM590.325 145.08V139.9H611.535V145.08H590.325ZM619.077 177V139.9H624.957V177H619.077ZM618.937 134.09V127.23H625.097V134.09H618.937ZM649.973 177.84C646.566 177.84 643.579 177.047 641.013 175.46C638.446 173.873 636.463 171.633 635.063 168.74C633.663 165.8 632.963 162.37 632.963 158.45C632.963 154.483 633.663 151.053 635.063 148.16C636.463 145.267 638.446 143.027 641.013 141.44C643.579 139.853 646.566 139.06 649.973 139.06C653.379 139.06 656.343 139.853 658.863 141.44C661.429 143.027 663.413 145.267 664.813 148.16C666.213 151.053 666.913 154.483 666.913 158.45C666.913 162.37 666.213 165.8 664.813 168.74C663.413 171.633 661.429 173.873 658.863 175.46C656.343 177.047 653.379 177.84 649.973 177.84ZM649.973 172.24C653.379 172.24 656.016 171.027 657.883 168.6C659.796 166.127 660.753 162.743 660.753 158.45C660.753 154.157 659.796 150.797 657.883 148.37C656.016 145.897 653.379 144.66 649.973 144.66C646.566 144.66 643.906 145.897 641.993 148.37C640.079 150.797 639.123 154.157 639.123 158.45C639.123 162.743 640.079 166.127 641.993 168.6C643.906 171.027 646.566 172.24 649.973 172.24ZM674.926 177V139.9H680.316L680.526 149.35L679.826 148.72C680.293 146.527 681.11 144.73 682.276 143.33C683.443 141.883 684.843 140.81 686.476 140.11C688.156 139.41 689.953 139.06 691.866 139.06C694.713 139.06 697.046 139.69 698.866 140.95C700.733 142.21 702.11 143.913 702.996 146.06C703.93 148.16 704.396 150.517 704.396 153.13V177H698.516V154.81C698.516 152.523 698.236 150.61 697.676 149.07C697.163 147.483 696.323 146.293 695.156 145.5C693.99 144.66 692.473 144.24 690.606 144.24C687.76 144.24 685.403 145.15 683.536 146.97C681.716 148.743 680.806 151.357 680.806 154.81V177H674.926Z" fill="url(#paint0_linear_2569_80)"/>
<path d="M225.688 177V127.3H241.088C248.741 127.3 254.621 129.47 258.728 133.81C262.881 138.103 264.958 144.24 264.958 152.22C264.958 160.153 262.928 166.267 258.868 170.56C254.808 174.853 249.021 177 241.508 177H225.688ZM231.708 171.12H241.088C246.921 171.12 251.308 169.557 254.248 166.43C257.188 163.257 258.658 158.52 258.658 152.22C258.658 145.827 257.188 141.067 254.248 137.94C251.308 134.767 246.921 133.18 241.088 133.18H231.708V171.12ZM289.172 177.84C285.765 177.84 282.779 177.047 280.212 175.46C277.645 173.873 275.662 171.633 274.262 168.74C272.862 165.8 272.162 162.37 272.162 158.45C272.162 154.483 272.862 151.053 274.262 148.16C275.662 145.267 277.645 143.027 280.212 141.44C282.779 139.853 285.765 139.06 289.172 139.06C292.579 139.06 295.542 139.853 298.062 141.44C300.629 143.027 302.612 145.267 304.012 148.16C305.412 151.053 306.112 154.483 306.112 158.45C306.112 162.37 305.412 165.8 304.012 168.74C302.612 171.633 300.629 173.873 298.062 175.46C295.542 177.047 292.579 177.84 289.172 177.84ZM289.172 172.24C292.579 172.24 295.215 171.027 297.082 168.6C298.995 166.127 299.952 162.743 299.952 158.45C299.952 154.157 298.995 150.797 297.082 148.37C295.215 145.897 292.579 144.66 289.172 144.66C285.765 144.66 283.105 145.897 281.192 148.37C279.279 150.797 278.322 154.157 278.322 158.45C278.322 162.743 279.279 166.127 281.192 168.6C283.105 171.027 285.765 172.24 289.172 172.24ZM328.615 177.84C325.162 177.84 322.152 177.047 319.585 175.46C317.065 173.873 315.105 171.633 313.705 168.74C312.305 165.8 311.605 162.37 311.605 158.45C311.605 154.53 312.305 151.123 313.705 148.23C315.105 145.337 317.065 143.097 319.585 141.51C322.152 139.877 325.162 139.06 328.615 139.06C331.462 139.06 333.982 139.573 336.175 140.6C338.415 141.58 340.235 143.027 341.635 144.94C343.035 146.853 343.945 149.187 344.365 151.94L338.205 152.36C337.785 149.887 336.712 147.997 334.985 146.69C333.259 145.337 331.135 144.66 328.615 144.66C325.209 144.66 322.549 145.897 320.635 148.37C318.722 150.797 317.765 154.157 317.765 158.45C317.765 162.743 318.722 166.127 320.635 168.6C322.549 171.027 325.209 172.24 328.615 172.24C331.135 172.24 333.259 171.54 334.985 170.14C336.712 168.74 337.785 166.64 338.205 163.84L344.365 164.26C343.945 167.013 343.035 169.417 341.635 171.47C340.235 173.477 338.415 175.04 336.175 176.16C333.982 177.28 331.462 177.84 328.615 177.84ZM363.835 177.84C360.148 177.84 357.185 176.603 354.945 174.13C352.751 171.61 351.655 168.157 351.655 163.77V139.9H357.535V162.16C357.535 165.753 358.165 168.413 359.425 170.14C360.731 171.82 362.715 172.66 365.375 172.66C368.315 172.66 370.625 171.727 372.305 169.86C373.985 167.947 374.825 165.333 374.825 162.02V139.9H380.705V177H375.105V167.83L376.015 168.32C375.268 171.353 373.845 173.71 371.745 175.39C369.645 177.023 367.008 177.84 363.835 177.84ZM391.918 177V139.9H397.308L397.518 149.28L396.678 149C397.098 146.947 397.822 145.197 398.848 143.75C399.922 142.257 401.228 141.113 402.768 140.32C404.308 139.48 406.012 139.06 407.878 139.06C411.098 139.06 413.712 139.947 415.718 141.72C417.772 143.493 419.055 145.967 419.568 149.14L418.448 149.07C418.822 146.923 419.498 145.127 420.478 143.68C421.505 142.187 422.812 141.043 424.398 140.25C425.985 139.457 427.805 139.06 429.858 139.06C432.518 139.06 434.758 139.62 436.578 140.74C438.398 141.813 439.775 143.4 440.708 145.5C441.642 147.6 442.108 150.143 442.108 153.13V177H436.228V154.39C436.228 151.03 435.575 148.51 434.268 146.83C432.962 145.103 431.025 144.24 428.458 144.24C426.732 144.24 425.215 144.66 423.908 145.5C422.648 146.34 421.668 147.553 420.968 149.14C420.268 150.68 419.918 152.57 419.918 154.81V177H414.038V154.81C414.038 151.497 413.455 148.907 412.288 147.04C411.122 145.173 409.162 144.24 406.408 144.24C404.682 144.24 403.165 144.66 401.858 145.5C400.598 146.34 399.595 147.553 398.848 149.14C398.148 150.727 397.798 152.617 397.798 154.81V177H391.918ZM466.975 177.84C463.475 177.84 460.441 177.047 457.875 175.46C455.355 173.873 453.395 171.633 451.995 168.74C450.641 165.8 449.965 162.37 449.965 158.45C449.965 154.53 450.641 151.123 451.995 148.23C453.395 145.337 455.331 143.097 457.805 141.51C460.325 139.877 463.288 139.06 466.695 139.06C469.915 139.06 472.761 139.83 475.235 141.37C477.708 142.863 479.621 145.057 480.975 147.95C482.375 150.843 483.075 154.367 483.075 158.52V160.27H456.125C456.358 164.237 457.408 167.223 459.275 169.23C461.188 171.237 463.755 172.24 466.975 172.24C469.401 172.24 471.385 171.68 472.925 170.56C474.511 169.393 475.608 167.877 476.215 166.01L482.515 166.5C481.535 169.813 479.668 172.543 476.915 174.69C474.208 176.79 470.895 177.84 466.975 177.84ZM456.125 155.09H476.635C476.355 151.497 475.305 148.86 473.485 147.18C471.711 145.5 469.448 144.66 466.695 144.66C463.848 144.66 461.491 145.547 459.625 147.32C457.805 149.047 456.638 151.637 456.125 155.09ZM491.039 177V139.9H496.429L496.639 149.35L495.939 148.72C496.406 146.527 497.223 144.73 498.389 143.33C499.556 141.883 500.956 140.81 502.589 140.11C504.269 139.41 506.066 139.06 507.979 139.06C510.826 139.06 513.159 139.69 514.979 140.95C516.846 142.21 518.223 143.913 519.109 146.06C520.043 148.16 520.509 150.517 520.509 153.13V177H514.629V154.81C514.629 152.523 514.349 150.61 513.789 149.07C513.276 147.483 512.436 146.293 511.269 145.5C510.103 144.66 508.586 144.24 506.719 144.24C503.873 144.24 501.516 145.15 499.649 146.97C497.829 148.743 496.919 151.357 496.919 154.81V177H491.039ZM542.491 177C539.131 177 536.634 176.23 535.001 174.69C533.414 173.15 532.621 170.747 532.621 167.48V131.22H538.501V167.34C538.501 169.02 538.874 170.187 539.621 170.84C540.367 171.493 541.511 171.82 543.051 171.82H548.371V177H542.491ZM527.161 145.08V139.9H548.371V145.08H527.161ZM565.649 177.84C561.822 177.84 558.766 176.953 556.479 175.18C554.239 173.407 553.119 170.933 553.119 167.76C553.119 164.587 554.052 162.09 555.919 160.27C557.786 158.45 560.749 157.167 564.809 156.42L577.969 153.97C577.969 150.843 577.222 148.51 575.729 146.97C574.282 145.43 572.089 144.66 569.149 144.66C566.582 144.66 564.552 145.243 563.059 146.41C561.566 147.53 560.539 149.163 559.979 151.31L553.749 150.82C554.449 147.32 556.129 144.497 558.789 142.35C561.496 140.157 564.949 139.06 569.149 139.06C573.909 139.06 577.549 140.413 580.069 143.12C582.589 145.78 583.849 149.467 583.849 154.18V169.51C583.849 170.35 583.989 170.957 584.269 171.33C584.596 171.657 585.109 171.82 585.809 171.82H587.279V177C587.092 177.047 586.789 177.07 586.369 177.07C585.949 177.117 585.506 177.14 585.039 177.14C583.359 177.14 581.982 176.883 580.909 176.37C579.882 175.81 579.136 174.97 578.669 173.85C578.202 172.683 577.969 171.167 577.969 169.3L578.669 169.44C578.342 171.027 577.549 172.473 576.289 173.78C575.029 175.04 573.466 176.043 571.599 176.79C569.732 177.49 567.749 177.84 565.649 177.84ZM566.209 172.66C568.682 172.66 570.782 172.193 572.509 171.26C574.282 170.28 575.636 168.973 576.569 167.34C577.502 165.66 577.969 163.793 577.969 161.74V159.08L565.929 161.32C563.409 161.787 561.659 162.51 560.679 163.49C559.746 164.423 559.279 165.66 559.279 167.2C559.279 168.927 559.886 170.28 561.099 171.26C562.359 172.193 564.062 172.66 566.209 172.66ZM605.655 177C602.295 177 599.798 176.23 598.165 174.69C596.578 173.15 595.785 170.747 595.785 167.48V131.22H601.665V167.34C601.665 169.02 602.038 170.187 602.785 170.84C603.531 171.493 604.675 171.82 606.215 171.82H611.535V177H605.655ZM590.325 145.08V139.9H611.535V145.08H590.325ZM619.077 177V139.9H624.957V177H619.077ZM618.937 134.09V127.23H625.097V134.09H618.937ZM649.973 177.84C646.566 177.84 643.579 177.047 641.013 175.46C638.446 173.873 636.463 171.633 635.063 168.74C633.663 165.8 632.963 162.37 632.963 158.45C632.963 154.483 633.663 151.053 635.063 148.16C636.463 145.267 638.446 143.027 641.013 141.44C643.579 139.853 646.566 139.06 649.973 139.06C653.379 139.06 656.343 139.853 658.863 141.44C661.429 143.027 663.413 145.267 664.813 148.16C666.213 151.053 666.913 154.483 666.913 158.45C666.913 162.37 666.213 165.8 664.813 168.74C663.413 171.633 661.429 173.873 658.863 175.46C656.343 177.047 653.379 177.84 649.973 177.84ZM649.973 172.24C653.379 172.24 656.016 171.027 657.883 168.6C659.796 166.127 660.753 162.743 660.753 158.45C660.753 154.157 659.796 150.797 657.883 148.37C656.016 145.897 653.379 144.66 649.973 144.66C646.566 144.66 643.906 145.897 641.993 148.37C640.079 150.797 639.123 154.157 639.123 158.45C639.123 162.743 640.079 166.127 641.993 168.6C643.906 171.027 646.566 172.24 649.973 172.24ZM674.926 177V139.9H680.316L680.526 149.35L679.826 148.72C680.293 146.527 681.11 144.73 682.276 143.33C683.443 141.883 684.843 140.81 686.476 140.11C688.156 139.41 689.953 139.06 691.866 139.06C694.713 139.06 697.046 139.69 698.866 140.95C700.733 142.21 702.11 143.913 702.996 146.06C703.93 148.16 704.396 150.517 704.396 153.13V177H698.516V154.81C698.516 152.523 698.236 150.61 697.676 149.07C697.163 147.483 696.323 146.293 695.156 145.5C693.99 144.66 692.473 144.24 690.606 144.24C687.76 144.24 685.403 145.15 683.536 146.97C681.716 148.743 680.806 151.357 680.806 154.81V177H674.926Z" fill="white"/>
<defs>
<linearGradient id="paint0_linear_2569_80" x1="219" y1="154.721" x2="710" y2="154.721" gradientUnits="userSpaceOnUse">
<stop stop-color="#F6F655"/>
<stop offset="1" stop-color="#5EED87"/>
</linearGradient>
<clipPath id="clip0_2569_80">
<rect width="183" height="160" fill="white" transform="translate(0 15.5)"/>
</clipPath>
</defs>
</svg>
