<svg width="754" height="191" viewBox="0 0 754 191" fill="none" xmlns="http://www.w3.org/2000/svg">
  <path fill-rule="evenodd" clip-rule="evenodd"
    d="M0 15.5831L24.3855 44.4228C29.4919 50.4619 36.999 53.9453 44.9076 53.9453H62.1898L16.0992 175.471L16.0748 175.497H47.9683C54.6391 173.965 56.3349 171.695 58.4774 166.059L100.9 53.9453H128.976L82.8845 175.474L82.8601 175.5H114.754C121.424 173.968 123.12 171.698 125.263 166.062L167.687 53.9453H208L183.536 25.0202C178.427 18.979 170.915 15.4962 163.003 15.5002L0 15.5831Z"
    fill="white" />
  <path
    d="M276.554 86.882C255.484 86.882 243.038 71.104 243.038 51.7C243.038 32.296 255.484 16.616 276.554 16.616C297.624 16.616 310.07 32.296 310.07 51.7C310.07 71.104 297.624 86.882 276.554 86.882ZM276.554 31.316C264.696 31.316 258.424 40.136 258.424 51.7C258.424 63.362 264.696 72.182 276.554 72.182C288.314 72.182 294.684 63.362 294.684 51.7C294.684 40.136 288.314 31.316 276.554 31.316ZM346.633 35.922C362.411 36.02 368.193 47.486 368.193 61.598C368.193 75.71 362.411 87.176 346.633 87.274C339.577 87.274 334.677 85.118 331.247 81.884V108.344H318.409V36.804H331.247V41.312C334.677 38.078 339.577 35.922 346.633 35.922ZM342.909 75.024C350.553 75.024 353.885 69.046 353.885 61.598C353.885 54.15 350.553 48.172 342.909 48.172C335.167 48.172 331.247 53.562 331.247 61.01V62.186C331.247 69.634 335.167 75.024 342.909 75.024ZM393.052 70.026C393.052 73.064 394.914 74.436 398.05 74.436C400.598 74.436 404.028 73.456 407.85 71.692V83.648C402.852 86.098 398.246 87.176 394.228 87.176C385.8 87.176 380.214 82.276 380.214 75.024V48.564H373.354V46.506L391.19 26.906H393.052V36.902H406.87V48.564H393.052V70.026ZM422.875 30.728C418.759 30.728 415.329 27.396 415.329 23.182C415.329 19.066 418.759 15.636 422.875 15.636C427.089 15.636 430.421 19.066 430.421 23.182C430.421 27.396 427.089 30.728 422.875 30.728ZM429.343 86.196H416.505V36.902H429.343V86.196ZM492.382 35.726C500.32 35.726 507.376 40.822 507.376 50.328V86H494.538V54.64C494.538 50.72 492.97 47.094 487.482 47.094C482.974 47.094 480.132 51.014 480.132 58.854H480.034V86H467.196V54.64C467.196 50.72 465.628 47.094 460.238 47.094C455.632 47.094 452.79 51.014 452.79 58.854V86H439.952V36.706H452.79V40.626C455.926 37.588 459.944 35.726 465.04 35.726C470.528 35.726 475.526 38.176 478.172 42.782C481.504 38.47 486.11 35.726 492.382 35.726ZM531.091 79.042L528.543 86H512.471L539.617 17.4H556.865L584.011 86H568.037L565.391 79.042C559.707 75.22 553.925 73.358 548.241 73.358C542.557 73.358 536.873 75.22 531.091 79.042ZM548.241 32.884L536.775 63.852C540.597 62.186 544.419 61.402 548.241 61.402C552.063 61.402 555.983 62.186 559.805 63.852L548.241 32.884ZM605.116 86.098H590.22V17.4H605.116V86.098Z"
    fill="url(#paint0_linear_809_13)" />
  <path
    d="M276.554 86.882C255.484 86.882 243.038 71.104 243.038 51.7C243.038 32.296 255.484 16.616 276.554 16.616C297.624 16.616 310.07 32.296 310.07 51.7C310.07 71.104 297.624 86.882 276.554 86.882ZM276.554 31.316C264.696 31.316 258.424 40.136 258.424 51.7C258.424 63.362 264.696 72.182 276.554 72.182C288.314 72.182 294.684 63.362 294.684 51.7C294.684 40.136 288.314 31.316 276.554 31.316ZM346.633 35.922C362.411 36.02 368.193 47.486 368.193 61.598C368.193 75.71 362.411 87.176 346.633 87.274C339.577 87.274 334.677 85.118 331.247 81.884V108.344H318.409V36.804H331.247V41.312C334.677 38.078 339.577 35.922 346.633 35.922ZM342.909 75.024C350.553 75.024 353.885 69.046 353.885 61.598C353.885 54.15 350.553 48.172 342.909 48.172C335.167 48.172 331.247 53.562 331.247 61.01V62.186C331.247 69.634 335.167 75.024 342.909 75.024ZM393.052 70.026C393.052 73.064 394.914 74.436 398.05 74.436C400.598 74.436 404.028 73.456 407.85 71.692V83.648C402.852 86.098 398.246 87.176 394.228 87.176C385.8 87.176 380.214 82.276 380.214 75.024V48.564H373.354V46.506L391.19 26.906H393.052V36.902H406.87V48.564H393.052V70.026ZM422.875 30.728C418.759 30.728 415.329 27.396 415.329 23.182C415.329 19.066 418.759 15.636 422.875 15.636C427.089 15.636 430.421 19.066 430.421 23.182C430.421 27.396 427.089 30.728 422.875 30.728ZM429.343 86.196H416.505V36.902H429.343V86.196ZM492.382 35.726C500.32 35.726 507.376 40.822 507.376 50.328V86H494.538V54.64C494.538 50.72 492.97 47.094 487.482 47.094C482.974 47.094 480.132 51.014 480.132 58.854H480.034V86H467.196V54.64C467.196 50.72 465.628 47.094 460.238 47.094C455.632 47.094 452.79 51.014 452.79 58.854V86H439.952V36.706H452.79V40.626C455.926 37.588 459.944 35.726 465.04 35.726C470.528 35.726 475.526 38.176 478.172 42.782C481.504 38.47 486.11 35.726 492.382 35.726ZM531.091 79.042L528.543 86H512.471L539.617 17.4H556.865L584.011 86H568.037L565.391 79.042C559.707 75.22 553.925 73.358 548.241 73.358C542.557 73.358 536.873 75.22 531.091 79.042ZM548.241 32.884L536.775 63.852C540.597 62.186 544.419 61.402 548.241 61.402C552.063 61.402 555.983 62.186 559.805 63.852L548.241 32.884ZM605.116 86.098H590.22V17.4H605.116V86.098Z"
    fill="white" />
  <path
    d="M262.126 172H247.076V122.3H262.126C270.806 122.3 277.573 124.54 282.426 129.02C287.326 133.5 289.776 139.543 289.776 147.15C289.776 154.757 287.326 160.8 282.426 165.28C277.573 169.76 270.806 172 262.126 172ZM278.646 161.85C282.519 158.35 284.456 153.45 284.456 147.15C284.456 140.85 282.519 135.95 278.646 132.45C274.819 128.95 269.219 127.2 261.846 127.2H252.186V167.1H261.846C269.219 167.1 274.819 165.35 278.646 161.85ZM314.955 172.84C309.541 172.84 305.155 171.02 301.795 167.38C298.481 163.693 296.825 159.307 296.825 154.22C296.825 149.087 298.481 144.7 301.795 141.06C305.155 137.373 309.541 135.53 314.955 135.53C320.415 135.53 324.801 137.373 328.115 141.06C331.475 144.7 333.155 149.087 333.155 154.22C333.155 159.307 331.475 163.693 328.115 167.38C324.801 171.02 320.415 172.84 314.955 172.84ZM301.865 154.22C301.865 158.28 303.078 161.663 305.505 164.37C307.931 167.03 311.081 168.36 314.955 168.36C318.875 168.36 322.048 167.03 324.475 164.37C326.901 161.663 328.115 158.28 328.115 154.22C328.115 150.113 326.901 146.73 324.475 144.07C322.048 141.363 318.875 140.01 314.955 140.01C311.035 140.01 307.861 141.363 305.435 144.07C303.055 146.73 301.865 150.113 301.865 154.22ZM344.858 167.38C341.638 163.693 340.028 159.307 340.028 154.22C340.028 149.133 341.638 144.747 344.858 141.06C348.124 137.373 352.371 135.53 357.598 135.53C362.171 135.53 365.904 136.837 368.798 139.45C371.691 142.017 373.511 145.213 374.258 149.04H369.218C368.471 146.24 367.094 144.047 365.088 142.46C363.081 140.827 360.584 140.01 357.598 140.01C353.864 140.01 350.831 141.34 348.498 144C346.211 146.66 345.068 150.067 345.068 154.22C345.068 158.327 346.211 161.71 348.498 164.37C350.831 167.03 353.864 168.36 357.598 168.36C360.584 168.36 363.081 167.567 365.088 165.98C367.094 164.347 368.471 162.13 369.218 159.33H374.258C373.511 163.157 371.691 166.377 368.798 168.99C365.904 171.557 362.171 172.84 357.598 172.84C352.371 172.84 348.124 171.02 344.858 167.38ZM407.378 157.44V136.37H412.348V172H407.588V166.82C406.795 168.313 405.418 169.69 403.458 170.95C401.545 172.21 399.071 172.84 396.038 172.84C391.745 172.84 388.455 171.603 386.168 169.13C383.881 166.61 382.738 163.297 382.738 159.19V136.37H387.708V158.14C387.708 165.047 390.765 168.5 396.878 168.5C399.911 168.5 402.408 167.567 404.368 165.7C406.375 163.787 407.378 161.033 407.378 157.44ZM453.702 151.21V172H448.732V150.23C448.732 147.01 447.986 144.49 446.492 142.67C445.046 140.803 442.806 139.87 439.772 139.87C436.786 139.87 434.336 140.85 432.422 142.81C430.509 144.77 429.552 147.43 429.552 150.79V172H424.582V136.37H429.342V141.83C431.629 137.63 435.386 135.53 440.612 135.53C446.259 135.53 450.132 137.817 452.232 142.39C453.352 140.477 454.986 138.867 457.132 137.56C459.279 136.207 461.822 135.53 464.762 135.53C468.916 135.53 472.112 136.837 474.352 139.45C476.639 142.017 477.782 145.283 477.782 149.25V172H472.812V150.23C472.812 147.057 472.066 144.537 470.572 142.67C469.126 140.803 466.909 139.87 463.922 139.87C460.982 139.87 458.532 140.85 456.572 142.81C454.659 144.77 453.702 147.57 453.702 151.21ZM521.58 155.62H491.97C492.204 159.353 493.464 162.41 495.75 164.79C498.037 167.17 501 168.36 504.64 168.36C507.3 168.36 509.634 167.683 511.64 166.33C513.647 164.93 515.047 163.11 515.84 160.87H521.02C519.947 164.417 517.964 167.31 515.07 169.55C512.177 171.743 508.677 172.84 504.57 172.84C499.157 172.84 494.864 171.043 491.69 167.45C488.564 163.81 487 159.377 487 154.15C487 149.017 488.61 144.63 491.83 140.99C495.097 137.35 499.32 135.53 504.5 135.53C509.68 135.53 513.834 137.28 516.96 140.78C520.087 144.233 521.65 148.55 521.65 153.73L521.58 155.62ZM504.5 140.01C501.14 140.01 498.34 141.107 496.1 143.3C493.86 145.447 492.53 148.2 492.11 151.56H516.68C516.354 148.06 515.094 145.26 512.9 143.16C510.754 141.06 507.954 140.01 504.5 140.01ZM535.914 136.37V141.83C536.754 140.243 538.154 138.797 540.114 137.49C542.074 136.183 544.594 135.53 547.674 135.53C551.968 135.53 555.281 136.79 557.614 139.31C559.994 141.83 561.184 145.143 561.184 149.25V172H556.214V150.23C556.214 146.917 555.421 144.373 553.834 142.6C552.294 140.78 549.961 139.87 546.834 139.87C543.708 139.87 541.141 140.827 539.134 142.74C537.128 144.653 536.124 147.337 536.124 150.79V172H531.154V136.37H535.914ZM587.48 167.31V171.79C586.64 172.023 585.38 172.14 583.7 172.14C577.54 172.14 574.46 168.897 574.46 162.41V140.57H567.67V136.37H574.46V126.22H579.43V136.37H587.62V140.57H579.43V162.06C579.43 165.793 581.064 167.66 584.33 167.66L587.48 167.31ZM619.067 153.73L607.237 155.34C603.971 155.76 601.614 156.553 600.167 157.72C598.767 158.84 598.067 160.333 598.067 162.2C598.067 164.533 598.861 166.213 600.447 167.24C602.034 168.22 603.994 168.71 606.327 168.71C610.294 168.71 613.397 167.613 615.637 165.42C617.924 163.18 619.067 160.66 619.067 157.86V153.73ZM605.767 172.84C601.614 172.84 598.464 171.907 596.317 170.04C594.217 168.127 593.167 165.513 593.167 162.2C593.167 156.18 597.647 152.587 606.607 151.42L619.067 149.81V148.83C619.067 142.81 615.707 139.8 608.987 139.8C603.294 139.8 599.981 142.157 599.047 146.87H594.077C594.591 143.417 596.061 140.663 598.487 138.61C600.961 136.557 604.531 135.53 609.197 135.53C614.144 135.53 617.854 136.743 620.327 139.17C622.801 141.55 624.037 144.793 624.037 148.9V164.51C624.037 168.01 624.387 170.507 625.087 172H620.187C619.674 170.6 619.417 168.57 619.417 165.91C616.711 170.53 612.161 172.84 605.767 172.84ZM649.687 167.31V171.79C648.847 172.023 647.587 172.14 645.907 172.14C639.747 172.14 636.667 168.897 636.667 162.41V140.57H629.877V136.37H636.667V126.22H641.637V136.37H649.827V140.57H641.637V162.06C641.637 165.793 643.271 167.66 646.537 167.66L649.687 167.31ZM660.344 127.55C659.271 127.55 658.408 127.247 657.754 126.64C657.101 125.987 656.774 125.147 656.774 124.12C656.774 123.093 657.101 122.253 657.754 121.6C658.408 120.9 659.271 120.55 660.344 120.55C661.371 120.55 662.211 120.9 662.864 121.6C663.564 122.253 663.914 123.093 663.914 124.12C663.914 125.147 663.564 125.987 662.864 126.64C662.211 127.247 661.371 127.55 660.344 127.55ZM657.824 172V136.37H662.794V172H657.824ZM690.521 172.84C685.108 172.84 680.721 171.02 677.361 167.38C674.048 163.693 672.391 159.307 672.391 154.22C672.391 149.087 674.048 144.7 677.361 141.06C680.721 137.373 685.108 135.53 690.521 135.53C695.981 135.53 700.368 137.373 703.681 141.06C707.041 144.7 708.721 149.087 708.721 154.22C708.721 159.307 707.041 163.693 703.681 167.38C700.368 171.02 695.981 172.84 690.521 172.84ZM677.431 154.22C677.431 158.28 678.644 161.663 681.071 164.37C683.498 167.03 686.648 168.36 690.521 168.36C694.441 168.36 697.614 167.03 700.041 164.37C702.468 161.663 703.681 158.28 703.681 154.22C703.681 150.113 702.468 146.73 700.041 144.07C697.614 141.363 694.441 140.01 690.521 140.01C686.601 140.01 683.428 141.363 681.001 144.07C678.621 146.73 677.431 150.113 677.431 154.22ZM723.014 136.37V141.83C723.854 140.243 725.254 138.797 727.214 137.49C729.174 136.183 731.694 135.53 734.774 135.53C739.067 135.53 742.381 136.79 744.714 139.31C747.094 141.83 748.284 145.143 748.284 149.25V172H743.314V150.23C743.314 146.917 742.521 144.373 740.934 142.6C739.394 140.78 737.061 139.87 733.934 139.87C730.807 139.87 728.241 140.827 726.234 142.74C724.227 144.653 723.224 147.337 723.224 150.79V172H718.254V136.37H723.014Z"
    fill="url(#paint1_linear_809_13)" />
  <path
    d="M262.126 172H247.076V122.3H262.126C270.806 122.3 277.573 124.54 282.426 129.02C287.326 133.5 289.776 139.543 289.776 147.15C289.776 154.757 287.326 160.8 282.426 165.28C277.573 169.76 270.806 172 262.126 172ZM278.646 161.85C282.519 158.35 284.456 153.45 284.456 147.15C284.456 140.85 282.519 135.95 278.646 132.45C274.819 128.95 269.219 127.2 261.846 127.2H252.186V167.1H261.846C269.219 167.1 274.819 165.35 278.646 161.85ZM314.955 172.84C309.541 172.84 305.155 171.02 301.795 167.38C298.481 163.693 296.825 159.307 296.825 154.22C296.825 149.087 298.481 144.7 301.795 141.06C305.155 137.373 309.541 135.53 314.955 135.53C320.415 135.53 324.801 137.373 328.115 141.06C331.475 144.7 333.155 149.087 333.155 154.22C333.155 159.307 331.475 163.693 328.115 167.38C324.801 171.02 320.415 172.84 314.955 172.84ZM301.865 154.22C301.865 158.28 303.078 161.663 305.505 164.37C307.931 167.03 311.081 168.36 314.955 168.36C318.875 168.36 322.048 167.03 324.475 164.37C326.901 161.663 328.115 158.28 328.115 154.22C328.115 150.113 326.901 146.73 324.475 144.07C322.048 141.363 318.875 140.01 314.955 140.01C311.035 140.01 307.861 141.363 305.435 144.07C303.055 146.73 301.865 150.113 301.865 154.22ZM344.858 167.38C341.638 163.693 340.028 159.307 340.028 154.22C340.028 149.133 341.638 144.747 344.858 141.06C348.124 137.373 352.371 135.53 357.598 135.53C362.171 135.53 365.904 136.837 368.798 139.45C371.691 142.017 373.511 145.213 374.258 149.04H369.218C368.471 146.24 367.094 144.047 365.088 142.46C363.081 140.827 360.584 140.01 357.598 140.01C353.864 140.01 350.831 141.34 348.498 144C346.211 146.66 345.068 150.067 345.068 154.22C345.068 158.327 346.211 161.71 348.498 164.37C350.831 167.03 353.864 168.36 357.598 168.36C360.584 168.36 363.081 167.567 365.088 165.98C367.094 164.347 368.471 162.13 369.218 159.33H374.258C373.511 163.157 371.691 166.377 368.798 168.99C365.904 171.557 362.171 172.84 357.598 172.84C352.371 172.84 348.124 171.02 344.858 167.38ZM407.378 157.44V136.37H412.348V172H407.588V166.82C406.795 168.313 405.418 169.69 403.458 170.95C401.545 172.21 399.071 172.84 396.038 172.84C391.745 172.84 388.455 171.603 386.168 169.13C383.881 166.61 382.738 163.297 382.738 159.19V136.37H387.708V158.14C387.708 165.047 390.765 168.5 396.878 168.5C399.911 168.5 402.408 167.567 404.368 165.7C406.375 163.787 407.378 161.033 407.378 157.44ZM453.702 151.21V172H448.732V150.23C448.732 147.01 447.986 144.49 446.492 142.67C445.046 140.803 442.806 139.87 439.772 139.87C436.786 139.87 434.336 140.85 432.422 142.81C430.509 144.77 429.552 147.43 429.552 150.79V172H424.582V136.37H429.342V141.83C431.629 137.63 435.386 135.53 440.612 135.53C446.259 135.53 450.132 137.817 452.232 142.39C453.352 140.477 454.986 138.867 457.132 137.56C459.279 136.207 461.822 135.53 464.762 135.53C468.916 135.53 472.112 136.837 474.352 139.45C476.639 142.017 477.782 145.283 477.782 149.25V172H472.812V150.23C472.812 147.057 472.066 144.537 470.572 142.67C469.126 140.803 466.909 139.87 463.922 139.87C460.982 139.87 458.532 140.85 456.572 142.81C454.659 144.77 453.702 147.57 453.702 151.21ZM521.58 155.62H491.97C492.204 159.353 493.464 162.41 495.75 164.79C498.037 167.17 501 168.36 504.64 168.36C507.3 168.36 509.634 167.683 511.64 166.33C513.647 164.93 515.047 163.11 515.84 160.87H521.02C519.947 164.417 517.964 167.31 515.07 169.55C512.177 171.743 508.677 172.84 504.57 172.84C499.157 172.84 494.864 171.043 491.69 167.45C488.564 163.81 487 159.377 487 154.15C487 149.017 488.61 144.63 491.83 140.99C495.097 137.35 499.32 135.53 504.5 135.53C509.68 135.53 513.834 137.28 516.96 140.78C520.087 144.233 521.65 148.55 521.65 153.73L521.58 155.62ZM504.5 140.01C501.14 140.01 498.34 141.107 496.1 143.3C493.86 145.447 492.53 148.2 492.11 151.56H516.68C516.354 148.06 515.094 145.26 512.9 143.16C510.754 141.06 507.954 140.01 504.5 140.01ZM535.914 136.37V141.83C536.754 140.243 538.154 138.797 540.114 137.49C542.074 136.183 544.594 135.53 547.674 135.53C551.968 135.53 555.281 136.79 557.614 139.31C559.994 141.83 561.184 145.143 561.184 149.25V172H556.214V150.23C556.214 146.917 555.421 144.373 553.834 142.6C552.294 140.78 549.961 139.87 546.834 139.87C543.708 139.87 541.141 140.827 539.134 142.74C537.128 144.653 536.124 147.337 536.124 150.79V172H531.154V136.37H535.914ZM587.48 167.31V171.79C586.64 172.023 585.38 172.14 583.7 172.14C577.54 172.14 574.46 168.897 574.46 162.41V140.57H567.67V136.37H574.46V126.22H579.43V136.37H587.62V140.57H579.43V162.06C579.43 165.793 581.064 167.66 584.33 167.66L587.48 167.31ZM619.067 153.73L607.237 155.34C603.971 155.76 601.614 156.553 600.167 157.72C598.767 158.84 598.067 160.333 598.067 162.2C598.067 164.533 598.861 166.213 600.447 167.24C602.034 168.22 603.994 168.71 606.327 168.71C610.294 168.71 613.397 167.613 615.637 165.42C617.924 163.18 619.067 160.66 619.067 157.86V153.73ZM605.767 172.84C601.614 172.84 598.464 171.907 596.317 170.04C594.217 168.127 593.167 165.513 593.167 162.2C593.167 156.18 597.647 152.587 606.607 151.42L619.067 149.81V148.83C619.067 142.81 615.707 139.8 608.987 139.8C603.294 139.8 599.981 142.157 599.047 146.87H594.077C594.591 143.417 596.061 140.663 598.487 138.61C600.961 136.557 604.531 135.53 609.197 135.53C614.144 135.53 617.854 136.743 620.327 139.17C622.801 141.55 624.037 144.793 624.037 148.9V164.51C624.037 168.01 624.387 170.507 625.087 172H620.187C619.674 170.6 619.417 168.57 619.417 165.91C616.711 170.53 612.161 172.84 605.767 172.84ZM649.687 167.31V171.79C648.847 172.023 647.587 172.14 645.907 172.14C639.747 172.14 636.667 168.897 636.667 162.41V140.57H629.877V136.37H636.667V126.22H641.637V136.37H649.827V140.57H641.637V162.06C641.637 165.793 643.271 167.66 646.537 167.66L649.687 167.31ZM660.344 127.55C659.271 127.55 658.408 127.247 657.754 126.64C657.101 125.987 656.774 125.147 656.774 124.12C656.774 123.093 657.101 122.253 657.754 121.6C658.408 120.9 659.271 120.55 660.344 120.55C661.371 120.55 662.211 120.9 662.864 121.6C663.564 122.253 663.914 123.093 663.914 124.12C663.914 125.147 663.564 125.987 662.864 126.64C662.211 127.247 661.371 127.55 660.344 127.55ZM657.824 172V136.37H662.794V172H657.824ZM690.521 172.84C685.108 172.84 680.721 171.02 677.361 167.38C674.048 163.693 672.391 159.307 672.391 154.22C672.391 149.087 674.048 144.7 677.361 141.06C680.721 137.373 685.108 135.53 690.521 135.53C695.981 135.53 700.368 137.373 703.681 141.06C707.041 144.7 708.721 149.087 708.721 154.22C708.721 159.307 707.041 163.693 703.681 167.38C700.368 171.02 695.981 172.84 690.521 172.84ZM677.431 154.22C677.431 158.28 678.644 161.663 681.071 164.37C683.498 167.03 686.648 168.36 690.521 168.36C694.441 168.36 697.614 167.03 700.041 164.37C702.468 161.663 703.681 158.28 703.681 154.22C703.681 150.113 702.468 146.73 700.041 144.07C697.614 141.363 694.441 140.01 690.521 140.01C686.601 140.01 683.428 141.363 681.001 144.07C678.621 146.73 677.431 150.113 677.431 154.22ZM723.014 136.37V141.83C723.854 140.243 725.254 138.797 727.214 137.49C729.174 136.183 731.694 135.53 734.774 135.53C739.067 135.53 742.381 136.79 744.714 139.31C747.094 141.83 748.284 145.143 748.284 149.25V172H743.314V150.23C743.314 146.917 742.521 144.373 740.934 142.6C739.394 140.78 737.061 139.87 733.934 139.87C730.807 139.87 728.241 140.827 726.234 142.74C724.227 144.653 723.224 147.337 723.224 150.79V172H718.254V136.37H723.014Z"
    fill="white" />
  <defs>
    <linearGradient id="paint0_linear_809_13" x1="240" y1="49" x2="1385.13" y2="49" gradientUnits="userSpaceOnUse">
      <stop stop-color="white" />
      <stop offset="1" stop-color="#AFAFAF" />
    </linearGradient>
    <linearGradient id="paint1_linear_809_13" x1="240" y1="154.721" x2="754" y2="154.721"
      gradientUnits="userSpaceOnUse">
      <stop stop-color="#F6F655" />
      <stop offset="1" stop-color="#5EED87" />
    </linearGradient>
  </defs>
</svg>