<svg xmlns="http://www.w3.org/2000/svg" version="1.1" xmlns:xlink="http://www.w3.org/1999/xlink" xmlns:svgjs="http://svgjs.dev/svgjs" width="1244" height="898"><svg width="1244" height="898" viewBox="0 0 1244 898" fill="none" xmlns="http://www.w3.org/2000/svg">
<path d="M96.255 897.075L374.659 209.199C385.725 181.689 411.935 161.749 446.59 154.326L645.491 111.825L349.709 844.326C336.896 875.911 326.754 888.633 286.857 897.221H96.1094L96.255 897.075Z" fill="black"></path>
<path d="M495.646 897.075L774.05 209.199C785.116 181.689 811.326 161.749 845.98 154.326L1044.88 111.825L749.1 844.326C736.286 875.911 726.144 888.633 686.248 897.221H495.5L495.646 897.075Z" fill="black"></path>
<path d="M152.302 169.789L0 1L987.227 0.529668C1026.87 0.510781 1064.66 17.2993 1091.22 46.7281L1244 216H372.5H256.243C216.618 216 178.848 199.208 152.302 169.789Z" fill="black"></path>
</svg><style>@media (prefers-color-scheme: light) { :root { filter: none; } }
@media (prefers-color-scheme: dark) { :root { filter: none; } }
</style></svg>